<svg width="33" height="33" viewBox="0 0 33 33" fill="none" xmlns="http://www.w3.org/2000/svg">
<g id="32 / arrival">
<path id="Union" fill-rule="evenodd" clip-rule="evenodd" d="M7.34152 9.97877C7.07104 9.89088 6.78638 10.0669 6.74415 10.3482L6.23752 13.723C6.16495 14.2064 6.45251 14.6714 6.91742 14.8225L24.1767 20.4303C24.9832 20.6924 25.8494 20.251 26.1114 19.4446C26.3838 18.6063 25.896 17.7112 25.0439 17.4858L19.7322 16.0804L18.4041 6.70721C18.349 6.31831 18.0772 5.99475 17.7037 5.87337C17.0777 5.66998 16.4244 6.09879 16.362 6.75402L15.6019 14.7384L8.34571 12.7958L7.64239 10.292C7.60078 10.1439 7.48787 10.0263 7.34152 9.97877ZM26.1776 23.4521H5.64758V25.0313H26.1776V23.4521Z" fill="#6E7491"/>
</g>
</svg>
