<svg width="20" height="26" viewBox="0 0 20 26" fill="none" xmlns="http://www.w3.org/2000/svg">
<path d="M4.99105 24.7175C4.51194 24.3968 4.08652 24.004 3.73098 23.5503C3.34304 23.0803 2.98345 22.586 2.65324 22.0744C1.87735 20.9376 1.27061 19.6941 0.850252 18.3837C0.343795 16.8592 0.0976562 15.3995 0.0976562 13.9714C0.0976562 12.3778 0.442048 10.9872 1.1126 9.8199C1.60893 8.90637 2.34835 8.14205 3.23972 7.6051C4.1007 7.06713 5.10348 6.77277 6.1164 6.75247C6.47092 6.75247 6.85583 6.80322 7.26099 6.90473C7.55474 6.98593 7.90926 7.11788 8.34481 7.28029C8.90192 7.49345 9.20579 7.6254 9.30708 7.65585C9.63122 7.77766 9.9047 7.82841 10.1174 7.82841C10.2795 7.82841 10.5125 7.77766 10.7707 7.69645C10.9176 7.6457 11.1962 7.55435 11.5912 7.38179C11.9822 7.23969 12.2921 7.11788 12.5383 7.02653C12.9131 6.91488 13.2757 6.81337 13.6018 6.76262C13.9969 6.70172 14.3889 6.68142 14.7647 6.71187C15.4838 6.76262 16.1422 6.91488 16.7297 7.13819C17.7629 7.55435 18.5965 8.20397 19.2185 9.12765C18.9551 9.29005 18.712 9.47885 18.4841 9.68592C17.9908 10.1224 17.5725 10.64 17.2382 11.2135C16.8027 11.9951 16.5798 12.8782 16.5859 13.7714C16.6011 14.8707 16.8796 15.837 17.4367 16.6744C17.8287 17.2834 18.3524 17.8052 18.9906 18.2335C19.3046 18.4467 19.5801 18.5938 19.8414 18.6903C19.7199 19.0709 19.5861 19.4414 19.4312 19.8068C19.0797 20.6259 18.6614 21.4106 18.165 22.1515C17.7274 22.791 17.3831 23.2681 17.1217 23.5827C16.7145 24.0699 16.3215 24.4354 15.9265 24.6962C15.4909 24.9855 14.9794 25.1388 14.4557 25.1388C14.1012 25.154 13.7467 25.1083 13.4084 25.0099C13.1146 24.9134 12.8249 24.8048 12.5413 24.682C12.2445 24.546 11.9376 24.4303 11.6246 24.3369C11.2397 24.2354 10.8447 24.1867 10.4456 24.1877C10.0404 24.1877 9.6454 24.2384 9.27062 24.3349C8.95662 24.4242 8.65274 24.5338 8.3519 24.6648C7.92648 24.8424 7.64793 24.9591 7.48586 25.0099C7.15768 25.1073 6.82139 25.1662 6.48307 25.1875C5.95636 25.1875 5.46611 25.0352 4.97788 24.7307L4.99105 24.7175ZM11.9336 5.98003C11.2448 6.32514 10.5904 6.47131 9.93509 6.42259C9.8338 5.76688 9.93509 5.09289 10.2086 4.35496C10.4517 3.72564 10.7758 3.15723 11.2215 2.64971C11.6874 2.12189 12.2445 1.68543 12.8725 1.37077C13.5411 1.02566 14.1792 0.842951 14.787 0.8125C14.868 1.50272 14.787 2.18279 14.5337 2.91362C14.3028 3.56324 13.9584 4.16211 13.5208 4.70008C13.0802 5.22789 12.5332 5.66436 11.9143 5.97902L11.9336 5.98003Z" fill="white"/>
</svg>
