<svg width="17" height="17" viewBox="0 0 17 17" fill="none" xmlns="http://www.w3.org/2000/svg">
<path d="M8.1016 13.2802L8.10159 13.2802L4.48976 14.749L4.77047 10.86C4.79863 10.47 4.67332 10.0843 4.42127 9.78529L1.90831 6.80409L5.69364 5.86932C6.07333 5.77556 6.40138 5.53722 6.60788 5.20509L8.66663 1.89389L10.7254 5.20509L11.5746 4.67708L10.7254 5.20509C10.9319 5.53722 11.2599 5.77556 11.6396 5.86932L15.4249 6.80409L12.912 9.78529C12.6599 10.0843 12.5346 10.47 12.5628 10.86L12.8435 14.749L9.23166 13.2802L8.85497 14.2066L9.23165 13.2802C8.86937 13.1329 8.46388 13.1329 8.1016 13.2802ZM1.12759 6.99689L1.1282 6.99674C1.128 6.99679 1.12779 6.99684 1.12759 6.99689L1.00772 6.51147L1.12759 6.99689Z" stroke="url(#paint0_linear_2894_9998)" stroke-width="2"/>
<defs>
<linearGradient id="paint0_linear_2894_9998" x1="8.66663" y1="0" x2="8.66663" y2="18" gradientUnits="userSpaceOnUse">
<stop stop-color="#605DEC"/>
<stop offset="1" stop-color="#2A26D9"/>
</linearGradient>
</defs>
</svg>
